# xmcd CD database file
#
# Track frame offsets:
#	150
#	16245
#	37762
#	59317
#	80370
#	101100
#	120592
#	136785
#	157995
#	179537
#
# Disc length: 2669 seconds
#
# Revision: 0
# Processed by: cddbd v1.5.2PL0 Copyright (c) Steve Scherf et al.
# Submitted via: CD2WAV32(JP) R3.22
#
DISCID=720a6b0a
DTITLE=椎名　恵 - 蒼の時刻
DYEAR=2007
DGENRE=Acapella
TTITLE0=愛は眠らない
TTITLE1=ひとりになりたい
TTITLE2=蒼の時刻
TTITLE3=忘れないで
TTITLE4=LOVE　IS　ALL～愛を聴かせて～
TTITLE5=お祝いの言葉に代えて
TTITLE6=JOｂ！
TTITLE7=晴れた日に愛が見える
TTITLE8=そうするかもしれない
TTITLE9=I need your love
EXTD=
EXTT0=
EXTT1=
EXTT2=
EXTT3=
EXTT4=
EXTT5=
EXTT6=
EXTT7=
EXTT8=
EXTT9=
PLAYORDER=
